HIERARCHY
ROOT ui
{
	 OFFSET 0 0 0
	 CHANNELS 3 XPosition YPosition Z Position
	 EndSite
	 {
	 OFFSET 0 -1 0
	 }
}
ROOT li
{
	 OFFSET 0 0 0
	 CHANNELS 3 XPosition YPosition Z Position
	 EndSite
	 {
	 OFFSET 0 -1 0
	 }
}
ROOT ul
{
	 OFFSET 0 0 0
	 CHANNELS 3 XPosition YPosition Z Position
	 EndSite
	 {
	 OFFSET 0 -1 0
	 }
}
ROOT ll
{
	 OFFSET 0 0 0
	 CHANNELS 3 XPosition YPosition Z Position
	 EndSite
	 {
	 OFFSET 0 -1 0
	 }
}
ROOT tt
{
	 OFFSET 0 0 0
	 CHANNELS 3 XPosition YPosition Z Position
	 EndSite
	 {
	 OFFSET 0 -1 0
	 }
}
ROOT tb
{
	 OFFSET 0 0 0
	 CHANNELS 3 XPosition YPosition Z Position
	 EndSite
	 {
	 OFFSET 0 -1 0
	 }
}
ROOT td
{
	 OFFSET 0 0 0
	 CHANNELS 3 XPosition YPosition Z Position
	 EndSite
	 {
	 OFFSET 0 -1 0
	 }
}
ROOT v
{
	 OFFSET 0 0 0
	 CHANNELS 3 XPosition YPosition Z Position
	 EndSite
	 {
	 OFFSET 0 -1 0
	 }
}
ROOT bn
{
	 OFFSET 0 0 0
	 CHANNELS 3 XPosition YPosition Z Position
	 EndSite
	 {
	 OFFSET 0 -1 0
	 }
}
MOTION
Frames: 21
Frame Time: 0.002
0.02685493469238281	-0.008510205268859863	0		0.6400404663085938	-2.6889873046875	0		-1.0105519409179688	0.2158353271484375	0		-0.27275323486328124	-3.2551787109375	0		1.8028387451171874	-0.7776723022460937	0		3.251386962890625	-0.5718739013671875	0		4.68786328125	-0.287926513671875	0		5.83856005859375	0.25298150634765626	0		-0.3165301818847656	5.93499072265625	0		
0.02690850639343262	-6.925219893455506E-4	0		0.6421944580078125	-2.687153564453125	0		-1.0036550903320312	0.21150474548339843	0		-0.2624572448730469	-3.24449853515625	0		1.80926025390625	-0.7428138427734375	0		3.267570068359375	-0.5560396728515625	0		4.68169873046875	-0.2997384033203125	0		5.83282861328125	0.25347061157226564	0		-0.29983428955078123	5.94458544921875	0		
-0.04407341003417969	-0.0030640640258789062	0		0.5975642700195313	-2.674791259765625	0		-1.0705689697265626	0.21601773071289063	0		-0.27997024536132814	-3.225513671875	0		1.81996826171875	-0.6910238037109375	0		3.2666904296875	-0.553020751953125	0		4.6899072265625	-0.28773260498046876	0		5.8335810546875	0.2537522735595703	0		-0.29821337890625	5.941333984375	0		
0.041099853515625	7.078239917755127E-4	0		0.6538488159179687	-2.676636962890625	0		-1.0024209594726563	0.21891943359375	0		-0.25729568481445314	-3.19702294921875	0		1.819742919921875	-0.6391246948242187	0		3.277233154296875	-0.5201517944335937	0		4.6790009765625	-0.29152005004882814	0		5.82726025390625	0.2559383392333984	0		-0.3325364990234375	5.93748046875	0		
-0.05167262649536133	0.0055383419990539555	0		0.6084164428710938	-2.658312255859375	0		-1.00630712890625	0.21464585876464845	0		-0.27260202026367186	-3.17110888671875	0		1.81043798828125	-0.5981412353515625	0		3.235468994140625	-0.5176954956054688	0		4.6761376953125	-0.29642193603515626	0		5.8244619140625	0.24068885803222656	0		-0.34786578369140625	5.92838037109375	0		
0.03641827774047852	-0.005753555774688721	0		0.6357817993164062	-2.660855712890625	0		-1.0091432495117187	0.21134112548828124	0		-0.2940142822265625	-3.157146240234375	0		1.8112913818359375	-0.546296142578125	0		3.2579228515625	-0.5000071105957031	0		4.6693935546875	-0.2943011779785156	0		5.81949365234375	0.21334860229492186	0		-0.3129821472167969	5.9336796875	0		
-0.04428311538696289	-1.114720031619072E-4	0		0.5862860717773437	-2.65253076171875	0		-1.007921630859375	0.2109732666015625	0		-0.30320458984375	-3.125343017578125	0		1.795218505859375	-0.4892769470214844	0		3.262248046875	-0.49513137817382813	0		4.67555615234375	-0.30235552978515623	0		5.82038037109375	0.21347882080078126	0		-0.3111454162597656	5.932345703125	0		
0.02900240707397461	0.002744391918182373	0		0.6457045288085937	-2.652475341796875	0		-0.9967024536132812	0.20947743225097656	0		-0.31953436279296876	-3.10547607421875	0		1.8208463134765625	-0.45875906372070313	0		3.26196923828125	-0.45622491455078124	0		4.6768193359375	-0.3023807373046875	0		5.81705859375	0.22751324462890626	0		-0.3302030639648437	5.93823583984375	0		
-0.03471802139282226	0.006151579856872559	0		0.5971857299804687	-2.645202392578125	0		-1.0014275512695312	0.2131532287597656	0		-0.3297560729980469	-3.07469384765625	0		1.8166153564453125	-0.41491912841796874	0		3.23819384765625	-0.4600806884765625	0		4.66910205078125	-0.30033502197265627	0		5.8221630859375	0.21357138061523437	0		-0.35954971313476564	5.9172255859375	0		
0.03641389465332031	-0.0029883670806884768	0		0.6406000366210938	-2.64199169921875	0		-1.0042456665039063	0.2097972412109375	0		-0.32811199951171877	-3.05306005859375	0		1.82627197265625	-0.3792593994140625	0		3.27159130859375	-0.4476133117675781	0		4.66238037109375	-0.29733636474609376	0		5.81591064453125	0.21371424865722657	0		-0.3586457824707031	5.916859375	0		
-0.0363226318359375	0.0024868628978729247	0		0.6060587768554687	-2.6309150390625	0		-0.9971103515625	0.20432077026367187	0		-0.29353598022460936	-3.033808837890625	0		1.8677945556640625	-0.35298126220703124	0		3.22797607421875	-0.43330572509765625	0		4.665439453125	-0.31148779296875	0		5.8118681640625	0.23275009155273438	0		-0.32466973876953126	5.92210986328125	0		
0.034749835968017576	-0.0066718502044677734	0		0.6192715454101563	-2.6373955078125	0		-1.0689478759765625	0.2047242431640625	0		-0.31305679321289065	-3.017959228515625	0		1.8132830810546876	-0.32564593505859374	0		3.22137548828125	-0.4144494323730469	0		4.66477685546875	-0.29763613891601565	0		5.80334326171875	0.2137627716064453	0		-0.3568251037597656	5.91609423828125	0		
-0.034035568237304685	0.0017274470329284668	0		0.58969287109375	-2.6194111328125	0		-1.0578468017578124	0.2031886901855469	0		-0.3174105224609375	-2.981290283203125	0		1.838615478515625	-0.30823263549804686	0		3.259363525390625	-0.4281274719238281	0		4.66775146484375	-0.3118693237304688	0		5.81127783203125	0.21327325439453124	0		-0.3539571228027344	5.91267431640625	0		
0.04804511260986328	0.002427746057510376	0		0.62287841796875	-2.616145751953125	0		-1.0527451171875	0.2067165069580078	0		-0.3129779968261719	-2.956730224609375	0		1.8347554931640624	-0.3025166931152344	0		3.22291064453125	-0.38600265502929687	0		4.66698095703125	-0.29810150146484377	0		5.8120390625	0.21289242553710938	0		-0.35503945922851565	5.91529052734375	0		
-0.03197750663757324	9.25249993801117E-4	0		0.6099913940429688	-2.611380615234375	0		-0.9838040161132813	0.20152999877929687	0		-0.3126797180175781	-2.9361328125	0		1.8248914794921876	-0.2907568359375	0		3.207737548828125	-0.40215264892578123	0		4.66103857421875	-0.2933188781738281	0		5.80912060546875	0.19868450927734374	0		-0.3211197509765625	5.92050927734375	0		
-0.0341080207824707	-0.003455985069274902	0		0.6129715576171875	-2.609806884765625	0		-1.0548892822265625	0.2018990478515625	0		-0.32340426635742187	-2.9084208984375	0		1.8166773681640624	-0.3030393981933594	0		3.20186962890625	-0.38343585205078123	0		4.65280224609375	-0.3075531311035156	0		5.8026416015625	0.19832948303222656	0		-0.3202953796386719	5.92108984375	0		
-0.04227229309082031	-0.002779078006744385	0		0.6158449096679688	-2.608245361328125	0		-0.9761276245117188	0.19559989929199217	0		-0.30937307739257813	-2.8929921875	0		1.827370849609375	-0.31555331420898436	0		3.213641357421875	-0.3889468688964844	0		4.64871875	-0.2998721923828125	0		5.80323095703125	0.19770228576660157	0		-0.3195330810546875	5.92066357421875	0		
-0.029506649017333984	-3.42274010181427E-4	0		0.593667236328125	-2.60141796875	0		-1.0653121337890625	0.20316473388671874	0		-0.4222777099609375	-2.861159912109375	0		1.7901185302734375	-0.31455426025390626	0		3.186677490234375	-0.36205499267578123	0		4.6476083984375	-0.286262451171875	0		5.80025927734375	0.21266276550292967	0		-0.35288751220703124	5.9146103515625	0		
0.0431708869934082	0.0014233399629592896	0		0.6403950805664063	-2.59436572265625	0		-0.9566695556640625	0.20153364562988282	0		-0.2984110107421875	-2.84196044921875	0		1.8287529296875	-0.31641574096679687	0		3.204079833984375	-0.38468576049804687	0		4.655189453125	-0.29278704833984376	0		5.80072119140625	0.21188400268554688	0		-0.3532122192382813	5.9151875	0		
-0.033238651275634766	0.0028395590782165528	0		0.5890162353515624	-2.588232666015625	0		-1.0280887451171874	0.20190335083007813	0		-0.4294871826171875	-2.80793212890625	0		1.8154144287109375	-0.3087158203125	0		3.19991796875	-0.36109912109375	0		4.6367958984375	-0.2900566101074219	0		5.8082548828125	0.20911363220214843	0		-0.3175311889648437	5.91936279296875	0		
0.04122303771972656	-0.0024235610961914063	0		0.6226194458007812	-2.57705029296875	0		-0.9555794067382812	0.20067720031738281	0		-0.3958316650390625	-2.791734375	0		1.812876220703125	-0.3131502380371094	0		3.188401611328125	-0.36345437622070315	0		4.642390625	-0.28262322998046874	0		5.80149365234375	0.21012336730957032	0		-0.31790908813476565	5.92093798828125	0		
